# xmcd
#
# Track frame offsets: 
#        150
#        19275
#        36473
#        52928
#        73968
#        89188
#        109025
#        126188
#        143470
#        157133
#        174813
#        203893
#        224360
#
# Disc length: 3230 seconds
#
# Revision: 0
# Processed by: cddbd v1.5.2PL0 Copyright (c) Steve Scherf et al.
# Submitted via: ExactAudioCopy v1.0b2
#
DISCID=c20c9c0d
DTITLE=Dani Carroll - Sacred
DYEAR=2001
DGENRE=Country
TTITLE0=Nothing Without You
TTITLE1=Ben
TTITLE2=Blue Highway
TTITLE3=Never Leave Again
TTITLE4=Blue
TTITLE5=After the Rain
TTITLE6=Paper Kites
TTITLE7=Right Here
TTITLE8=This One Kiss
TTITLE9=Old Friends
TTITLE10=Southern Song
TTITLE11=I Don't Want to Know
TTITLE12=One More Song
EXTD=
EXTT0=
EXTT1=
EXTT2=
EXTT3=
EXTT4=
EXTT5=
EXTT6=
EXTT7=
EXTT8=
EXTT9=
EXTT10=
EXTT11=
EXTT12=
PLAYORDER=
